<?xml version="1.0" standalone="no"?>
<!DOCTYPE svg PUBLIC "-//W3C//DTD SVG 20010904//EN"
 "http://www.w3.org/TR/2001/REC-SVG-20010904/DTD/svg10.dtd">
<svg version="1.0" xmlns="http://www.w3.org/2000/svg"
 width="700.000000pt" height="700.000000pt" viewBox="0 0 700.000000 700.000000"
 preserveAspectRatio="xMidYMid meet">
<metadata>
Created by potrace 1.11, written by Peter Selinger 2001-2013
</metadata>
<g transform="translate(0.000000,700.000000) scale(0.100000,-0.100000)"
fill="#000000" stroke="none">
<path d="M3570 6833 c-179 -92 -370 -189 -425 -217 -118 -61 -113 -41 -74
-271 24 -147 24 -148 -13 -165 -31 -15 -468 -237 -893 -455 -99 -51 -324 -165
-500 -255 -176 -90 -371 -190 -434 -222 l-115 -59 -122 123 c-67 67 -126 124
-132 126 -6 2 -93 -39 -194 -91 -101 -52 -292 -150 -425 -218 l-242 -124 5
-35 c5 -33 36 -235 48 -310 3 -19 7 -44 10 -55 2 -11 6 -41 10 -66 4 -25 9
-57 11 -70 2 -13 6 -42 10 -64 28 -194 58 -351 67 -356 7 -4 39 -11 72 -15 34
-4 63 -8 66 -9 15 -3 160 -27 185 -29 20 -3 28 -25 40 -116 4 -25 8 -52 10
-60 2 -8 7 -35 10 -60 3 -25 15 -97 25 -160 11 -63 22 -133 25 -155 6 -38 41
-262 50 -315 2 -14 18 -113 35 -220 17 -107 33 -206 35 -220 3 -14 8 -45 11
-70 3 -25 8 -48 10 -51 2 -3 6 -34 10 -70 3 -35 8 -67 10 -70 2 -4 13 -67 24
-140 11 -74 22 -145 24 -159 13 -69 26 -149 31 -180 2 -19 9 -62 14 -94 6 -33
10 -60 8 -61 -1 -1 -29 -15 -62 -32 -157 -79 -245 -125 -249 -132 -3 -3 2 -42
9 -86 7 -44 25 -156 40 -249 15 -93 28 -177 30 -186 2 -9 6 -39 10 -66 3 -27
18 -121 33 -209 l27 -160 115 -17 c63 -9 133 -20 155 -23 22 -3 79 -12 127
-20 48 -9 106 -18 130 -21 24 -3 95 -14 158 -24 160 -26 179 -29 226 -36 l42
-6 72 143 c77 152 95 180 113 174 7 -3 86 -16 177 -30 91 -14 176 -28 190 -30
61 -10 228 -36 260 -41 87 -13 402 -63 425 -68 11 -2 43 -7 70 -10 28 -4 75
-11 105 -16 30 -5 73 -12 95 -15 22 -3 49 -8 61 -10 19 -4 130 -22 192 -30 24
-3 149 -24 192 -31 14 -2 57 -9 95 -14 39 -6 95 -15 125 -20 30 -5 73 -12 95
-15 98 -14 92 -8 104 -93 6 -42 13 -88 16 -102 8 -50 25 -155 25 -162 0 -6 18
-10 114 -24 21 -3 48 -7 59 -10 12 -2 39 -6 62 -9 22 -3 67 -11 100 -16 63
-12 70 -13 150 -24 28 -3 57 -8 65 -11 8 -2 40 -6 70 -10 30 -3 58 -7 61 -9 3
-2 28 -7 55 -10 27 -4 87 -13 134 -21 78 -12 85 -12 95 4 5 9 105 203 221 431
l211 414 -123 123 c-68 68 -124 128 -124 135 0 6 7 25 16 42 9 18 20 39 24 47
5 8 62 121 128 250 160 313 359 706 614 1210 116 228 214 419 218 423 4 4 61
-1 126 -12 65 -11 139 -23 164 -26 25 -4 49 -7 53 -8 8 -2 59 94 313 592 131
256 134 264 117 284 -54 60 -664 662 -671 662 -4 0 -78 -36 -165 -80 l-156
-80 -786 785 -786 786 82 160 82 161 -325 324 c-179 178 -334 332 -344 341
-18 16 -35 9 -344 -149z m1278 -1996 l1104 -1104 -125 -244 c-68 -134 -200
-392 -292 -574 -642 -1263 -768 -1511 -887 -1745 -61 -118 -112 -218 -114
-221 -2 -3 -34 0 -71 7 -37 6 -90 15 -118 19 -27 3 -59 8 -70 10 -11 3 -38 7
-60 10 -22 3 -94 14 -160 25 -66 10 -181 28 -255 40 -74 11 -146 23 -160 25
-14 2 -43 6 -65 10 -37 5 -79 12 -130 21 -11 2 -40 6 -65 9 -25 3 -56 8 -70
11 -34 6 -67 12 -115 19 -22 3 -65 10 -95 15 -30 5 -86 14 -125 20 -38 5 -81
12 -95 14 -43 7 -168 28 -192 31 -41 6 -161 24 -283 44 -66 11 -138 22 -160
26 -22 3 -51 8 -65 10 -14 2 -99 16 -190 30 -209 33 -208 33 -250 39 -55 8
-111 17 -133 22 -12 2 -39 6 -62 9 -62 9 -99 16 -102 18 -2 3 -9 44 -18 107
-6 47 -11 76 -19 125 -6 34 -45 276 -51 315 -10 65 -15 97 -19 115 -2 11 -7
40 -10 65 -3 25 -9 59 -11 75 -10 55 -24 140 -29 178 -14 88 -19 120 -42 262
-14 83 -27 161 -29 175 -2 14 -6 43 -10 65 -3 22 -8 55 -11 74 -2 19 -6 46 -9
60 -6 38 -27 163 -30 186 -6 36 -16 99 -27 165 -12 75 -11 72 -33 210 -8 58
-17 114 -19 125 -8 45 -17 96 -36 220 -18 116 -42 266 -56 350 -3 17 -7 46
-10 65 -2 19 -9 59 -15 87 -6 29 -8 57 -5 62 4 5 52 33 109 62 211 107 539
275 742 379 116 59 332 169 480 245 149 76 360 184 470 240 110 56 315 161
455 233 468 239 514 262 524 262 6 0 508 -496 1114 -1103z"/>
</g>
</svg>
